<svg width="32" height="32" viewBox="0 0 32 32" fill="none" xmlns="http://www.w3.org/2000/svg">
<path d="M29.548 3.04269C29.2911 2.83827 28.9964 2.68646 28.6808 2.59593C28.3652 2.50541 28.0349 2.47793 27.7087 2.51507C27.3824 2.55222 27.0667 2.65325 26.7796 2.81242C26.4924 2.97158 26.2394 3.18574 26.035 3.44269L16 16.0667L12.492 11.6527C12.0793 11.1335 11.4773 10.7996 10.8184 10.7243C10.1595 10.649 9.49766 10.8385 8.9785 11.2512C8.45934 11.6639 8.12538 12.2659 8.05008 12.9248C7.97478 13.5837 8.16432 14.2455 8.577 14.7647L14.042 21.6397C14.516 22.2367 15.237 22.5827 15.999 22.5827C16.761 22.5827 17.481 22.2327 17.956 21.6387L29.95 6.55469C30.81 5.47469 30.63 3.90069 29.548 3.04169V3.04269ZM24.5 24.4997H7.5V7.49969H20.256L22.641 4.49969H6C5.17 4.49969 4.5 5.16969 4.5 5.99969V25.9997C4.5 26.8277 5.17 27.4997 6 27.4997H26C26.3978 27.4997 26.7794 27.3417 27.0607 27.0603C27.342 26.779 27.5 26.3975 27.5 25.9997V12.8497L24.5 16.6237V24.4997Z" fill="white"/>
</svg>
