<svg width="32" height="32" viewBox="0 0 32 32" fill="none" xmlns="http://www.w3.org/2000/svg">
<path d="M7.86305 4.12976L4.82005 8.97576L17.3861 16.8658L20.4261 12.0228L7.86305 4.12976ZM21.2501 17.6048L24.1051 17.7118L22.7681 15.1848L21.5281 12.8348L18.5921 17.5078L21.2501 17.6048V17.6048ZM3.24005 2.83676L1.64705 5.36976C1.45485 5.67611 1.39218 6.04624 1.47282 6.39878C1.55345 6.75133 1.77079 7.05742 2.07705 7.24976L3.66505 8.24976L6.70705 3.40676L5.12105 2.40676C4.48105 2.00676 3.63805 2.19676 3.23805 2.83676H3.24005ZM27.0601 6.80176C27.3351 6.80176 27.5601 7.02676 27.5601 7.30176V26.3018C27.5601 26.4344 27.5074 26.5615 27.4136 26.6553C27.3198 26.7491 27.1927 26.8018 27.0601 26.8018H8.06005C7.92745 26.8018 7.80027 26.7491 7.7065 26.6553C7.61273 26.5615 7.56005 26.4344 7.56005 26.3018L7.56005 13.0578L4.56005 11.1738L4.56005 26.3018C4.56005 28.2318 6.13005 29.8018 8.06005 29.8018H27.0601C28.9901 29.8018 30.5601 28.2318 30.5601 26.3018V7.30176C30.5601 5.37176 28.9901 3.80176 27.0601 3.80176H11.0971L15.8731 6.80176H27.0631H27.0601Z" fill="#333333"/>
</svg>
