<svg width="32" height="32" viewBox="0 0 32 32" fill="none" xmlns="http://www.w3.org/2000/svg">
<path d="M22.0648 18.5302C21.5978 18.2402 20.8978 18.3202 20.5088 18.7102L17.4148 21.8002C17.2273 21.9877 16.973 22.093 16.7078 22.093C16.4427 22.093 16.1884 21.9877 16.0008 21.8002L9.04983 14.8502C8.86236 14.6627 8.75704 14.4083 8.75704 14.1432C8.75704 13.878 8.86236 13.6237 9.04983 13.4362L11.9628 10.5242C12.3528 10.1342 12.4098 9.44918 12.0928 9.00018L6.79283 1.48718C6.71952 1.38102 6.62506 1.29115 6.51538 1.22323C6.40569 1.15531 6.28315 1.11079 6.15544 1.09248C6.02773 1.07417 5.89762 1.08246 5.77327 1.11683C5.64892 1.15119 5.53301 1.21089 5.43283 1.29218C5.43283 1.29218 1.29883 4.57218 1.29883 7.58718C1.29883 19.9222 11.2988 29.9212 23.6318 29.9212C26.6468 29.9212 29.5798 24.3872 29.5798 24.3872C29.7034 24.1467 29.733 23.8688 29.6627 23.6077C29.5925 23.3467 29.4274 23.1211 29.1998 22.9752L22.0648 18.5312V18.5302Z" fill="white"/>
</svg>
