<svg width="32" height="32" viewBox="0 0 32 32" fill="none" xmlns="http://www.w3.org/2000/svg">
<path d="M16 3.5C14.0109 3.5 12.1032 4.29018 10.6967 5.6967C9.29018 7.10322 8.5 9.01088 8.5 11C8.5 15.143 16 29.12 16 29.12C16 29.12 23.5 15.144 23.5 11C23.5 9.01088 22.7098 7.10322 21.3033 5.6967C19.8968 4.29018 17.9891 3.5 16 3.5V3.5ZM16 14.584C15.0495 14.584 14.1379 14.2064 13.4657 13.5343C12.7936 12.8621 12.416 11.9505 12.416 11C12.416 10.0495 12.7936 9.13786 13.4657 8.46573C14.1379 7.7936 15.0495 7.416 16 7.416C16.9505 7.416 17.8621 7.7936 18.5343 8.46573C19.2064 9.13786 19.584 10.0495 19.584 11C19.584 11.9505 19.2064 12.8621 18.5343 13.5343C17.8621 14.2064 16.9505 14.584 16 14.584V14.584Z" fill="white"/>
</svg>
