<svg width="32" height="32" viewBox="0 0 32 32" fill="none" xmlns="http://www.w3.org/2000/svg">
<path d="M15.9996 9.90382C14.402 9.93276 12.8795 10.5877 11.7599 11.7278C10.6403 12.8679 10.013 14.4019 10.013 15.9998C10.013 17.5977 10.6403 19.1318 11.7599 20.2718C12.8795 21.4119 14.402 22.0669 15.9996 22.0958C17.5972 22.0669 19.1197 21.4119 20.2393 20.2718C21.3589 19.1318 21.9862 17.5977 21.9862 15.9998C21.9862 14.4019 21.3589 12.8679 20.2393 11.7278C19.1197 10.5877 17.5972 9.93276 15.9996 9.90382ZM15.9996 20.4798C14.8114 20.4798 13.6719 20.0078 12.8318 19.1677C11.9916 18.3275 11.5196 17.188 11.5196 15.9998C11.5196 14.8117 11.9916 13.6721 12.8318 12.832C13.6719 11.9918 14.8114 11.5198 15.9996 11.5198C17.1878 11.5198 18.3273 11.9918 19.1674 12.832C20.0076 13.6721 20.4796 14.8117 20.4796 15.9998C20.4796 17.188 20.0076 18.3275 19.1674 19.1677C18.3273 20.0078 17.1878 20.4798 15.9996 20.4798ZM24.5756 2.31982H7.4226C6.74537 2.31996 6.07481 2.45348 5.44918 2.71276C4.82355 2.97205 4.25512 3.35202 3.77634 3.83098C3.29757 4.30995 2.91781 4.87852 2.65877 5.50425C2.39973 6.12998 2.26647 6.8006 2.2666 7.47782V24.5198C2.2666 27.3698 4.5766 29.6758 7.4226 29.6758H24.5756C27.4256 29.6758 29.7316 27.3658 29.7316 24.5208V7.47982C29.7316 4.62982 27.4246 2.31982 24.5756 2.31982ZM22.2356 5.39382C22.2356 4.78882 22.7256 4.29682 23.3326 4.29682H26.5526C27.1566 4.29682 27.6486 4.78682 27.6486 5.39382V8.61382C27.6486 9.21782 27.1586 9.70982 26.5506 9.70982H23.3306C22.7276 9.70982 22.2346 9.21982 22.2346 8.61282V5.39282L22.2356 5.39382ZM28.6356 24.5208C28.6356 26.7588 26.8156 28.5808 24.5756 28.5808H7.4226C6.34615 28.5798 5.31409 28.1517 4.55292 27.3905C3.79175 26.6293 3.36366 25.5973 3.3626 24.5208V10.8798H4.1896C4.2916 10.3798 4.7336 10.0018 5.2646 10.0018H8.7026C9.2326 10.0018 9.6766 10.3788 9.7766 10.8788H11.2746C12.5166 9.73182 14.1746 9.02982 15.9996 9.02982C17.8246 9.02982 19.4796 9.72982 20.7226 10.8768H28.6346V24.5198H28.6366L28.6356 24.5208Z" fill="white"/>
</svg>
