<svg width="32" height="32" viewBox="0 0 32 32" fill="none" xmlns="http://www.w3.org/2000/svg">
<path d="M28.4 22.47C28.88 21.505 29.25 20.478 29.495 19.403C30.448 15.743 30.161 12.549 30.161 12.549L29.835 14.652C29.835 14.652 29.365 10.756 28.791 9.299C27.911 7.069 27.518 7.085 27.517 7.089C28.059 8.469 28.011 9.259 28 9.377L27.972 9.33C27.842 9.007 27.175 7.512 25.747 6.453C23.1576 3.87835 19.6535 2.43464 16.002 2.438C14.0741 2.43593 12.1673 2.83748 10.404 3.61681C8.64072 4.39614 7.06014 5.53599 5.76395 6.963C5.44395 6.5 5.18395 5.938 5.15895 5.317L5.15195 5.322L5.14895 5.292C5.14895 5.292 3.53995 6.537 3.71395 9.9C3.41395 10.475 3.15395 11.073 2.93695 11.692C2.56195 12.509 2.18695 13.696 1.87695 15.438C1.87695 15.438 2.01095 15.016 2.27695 14.45C2.21295 14.932 2.17395 15.42 2.16095 15.917C2.07095 16.761 2.04395 17.781 2.12295 19.004C2.12295 19.004 2.15495 18.598 2.25895 17.984C3.09195 24.84 8.92495 30.15 16 30.15C17.86 30.15 19.637 29.78 21.257 29.115C24.937 27.771 27.117 25.195 28.4 22.469V22.47ZM16.002 3.355C18.448 3.355 20.732 4.035 22.682 5.215C20.408 4.687 19.249 4.955 19.259 4.967C19.271 4.982 22.642 5.557 23.239 6.377C23.239 6.377 21.809 6.377 20.383 6.787C20.318 6.807 25.625 7.451 26.71 12.754C26.71 12.754 26.13 11.541 25.41 11.334C25.883 12.774 25.76 15.504 25.31 16.862C25.252 17.036 25.192 16.107 24.306 15.707C24.59 17.744 24.288 20.975 22.874 21.865C22.764 21.935 23.761 18.675 23.074 19.935C18.982 26.211 14.116 22.475 12.141 21.143C13.727 21.531 15.409 21.251 16.384 20.583C17.366 19.913 17.948 19.423 18.471 19.537C18.993 19.654 19.341 19.13 18.935 18.665C18.53 18.199 17.543 17.56 16.21 17.908C15.27 18.154 14.102 19.194 12.323 18.14C10.805 17.24 10.816 16.51 10.816 16.045C10.816 15.679 11.073 15.165 11.55 15.017C12.13 15.077 12.594 15.23 13.087 15.482C13.0925 15.3087 13.0925 15.1353 13.087 14.962C13.125 14.886 13.101 14.652 13.039 14.367C13.004 14.0781 12.9403 13.7933 12.849 13.517C12.859 13.514 12.865 13.509 12.869 13.495C12.945 13.151 15.016 11.951 15.169 11.835C15.321 11.722 15.719 11.458 15.674 10.653C15.659 10.388 15.616 10.359 13.442 10.367C12.525 10.37 12.017 9.473 11.852 9.122C12.075 7.892 12.716 7.012 13.772 6.418C13.792 6.408 13.787 6.398 13.764 6.392C13.984 6.265 11.24 6.386 10.004 7.996C9.67395 8.043 9.21795 7.948 8.70895 7.948C8.07095 7.948 7.56895 8.018 7.10595 8.135C7.03711 8.14671 6.96679 8.14671 6.89795 8.135C6.70935 7.99222 6.53061 7.83687 6.36295 7.67C7.5731 6.31047 9.05767 5.22289 10.7188 4.47894C12.3799 3.735 14.1799 3.35159 16 3.354L16.002 3.355Z" fill="white"/>
</svg>
