<svg width="100" height="100" viewBox="0 0 100 100" fill="none" xmlns="http://www.w3.org/2000/svg">
<g clip-path="url(#clip0_33:4)">
<path d="M50.002 0C30.763 0 15 15.718 15 34.902C15 42.334 17.374 49.242 21.392 54.921L45.73 96.994C49.139 101.447 51.405 100.601 54.24 96.759L81.083 51.076C81.625 50.095 82.05 49.05 82.421 47.984C84.1245 43.8329 85.0006 39.389 85 34.902C85 15.718 69.24 0 50.002 0ZM50.002 16.354C60.361 16.354 68.599 24.572 68.599 34.902C68.599 45.232 60.361 53.446 50.002 53.446C39.642 53.446 31.401 45.231 31.401 34.902C31.401 24.572 39.642 16.354 50.001 16.354H50.002Z" fill="#F24E1E"/>
</g>
<defs>
<clipPath id="clip0_33:4">
<rect width="100" height="100" fill="white"/>
</clipPath>
</defs>
</svg>
